<?xml version="1.0" encoding="UTF-8"?>
<svg width="16px" height="15px" viewBox="0 0 16 15" version="1.1" xmlns="http://www.w3.org/2000/svg" xmlns:xlink="http://www.w3.org/1999/xlink">
    <!-- Generator: Sketch 46.2 (44496) - http://www.bohemiancoding.com/sketch -->
    <title>icon_linkedin_small_white</title>
    <desc>Created with Sketch.</desc>
    <defs></defs>
    <g id="Page-1" stroke="none" stroke-width="1" fill="none" fill-rule="evenodd">
        <g id="icon_linkedin_small_white" fill="#FFFFFF">
            <path d="M3.63220772,4.87893294 L3.63220772,14.9997313 L0.202789989,14.9997313 L0.202789989,4.87893294 L3.63220772,4.87893294 Z M3.85807783,1.74816172 C3.85807783,2.71994483 3.11335026,3.49753253 1.91756734,3.49753253 L1.8956515,3.49753253 C0.74431665,3.49753253 0,2.71994483 0,1.74816172 C0,0.755823847 0.766985845,0 1.94016805,0 C3.11335026,0 3.83581955,0.755823847 3.85807783,1.74816172 Z M16,9.19677483 L15.999863,14.9997313 L12.5705823,14.9997313 L12.5705823,9.58509847 C12.5705823,8.22505889 12.0743255,7.29700501 10.8328618,7.29700501 C9.8854127,7.29700501 9.32107987,7.92264874 9.07322544,8.52693165 C8.98254866,8.74349547 8.96029038,9.04523389 8.96029038,9.34771121 L8.96029038,15 L5.53046173,15 C5.53046173,15 5.57566315,5.82888503 5.53046173,4.87920163 L8.96029038,4.87920163 L8.96029038,6.31272783 C9.41545495,5.62360617 10.2306556,4.64127699 12.0514509,4.64127699 C14.3081658,4.64127699 16,6.08810332 16,9.19677483 Z"></path>
        </g>
    </g>
</svg>