<?xml version="1.0" encoding="UTF-8"?>
<svg width="20px" height="18px" viewBox="0 0 20 18" version="1.1" xmlns="http://www.w3.org/2000/svg" xmlns:xlink="http://www.w3.org/1999/xlink">
    <!-- Generator: Sketch 46.2 (44496) - http://www.bohemiancoding.com/sketch -->
    <title>icon_menu_white</title>
    <desc>Created with Sketch.</desc>
    <defs></defs>
    <g id="Page-1" stroke="none" stroke-width="1" fill="none" fill-rule="evenodd">
        <g id="icon_menu_white" fill="#FFFFFF">
            <g transform="translate(10.000000, 9.000000) scale(-1, 1) translate(-10.000000, -9.000000) ">
                <path d="M11.9122257,3.7241069 L0.626959248,3.7241069 C0.280564263,3.7241069 0,3.44634828 0,3.10341724 L0,0.620658621 C0,0.277727586 0.280564263,-3.10344828e-05 0.626959248,-3.10344828e-05 L11.9122257,-3.10344828e-05 C12.2586207,-3.10344828e-05 12.539185,0.277727586 12.539185,0.620658621 L12.539185,3.10341724 C12.539185,3.44634828 12.2586207,3.7241069 11.9122257,3.7241069" id="Fill-1"></path>
                <path d="M11.9122257,10.8621931 L0.626959248,10.8621931 C0.280564263,10.8621931 0,10.5841241 0,10.2415034 L0,7.75874483 C0,7.41581379 0.280564263,7.13805517 0.626959248,7.13805517 L11.9122257,7.13805517 C12.2586207,7.13805517 12.539185,7.41581379 12.539185,7.75874483 L12.539185,10.2415034 C12.539185,10.5841241 12.2586207,10.8621931 11.9122257,10.8621931" id="Fill-4"></path>
                <path d="M11.9122257,18.0001241 L0.626959248,18.0001241 C0.280564263,18.0001241 0,17.7220552 0,17.3794345 L0,14.8966759 C0,14.5537448 0.280564263,14.2759862 0.626959248,14.2759862 L11.9122257,14.2759862 C12.2586207,14.2759862 12.539185,14.5537448 12.539185,14.8966759 L12.539185,17.3794345 C12.539185,17.7220552 12.2586207,18.0001241 11.9122257,18.0001241" id="Fill-6"></path>
                <path d="M14.7335423,12.7242621 C14.6871473,12.7242621 14.6401254,12.7140207 14.5962382,12.6926069 C14.4887147,12.6407793 14.4200627,12.5327793 14.4200627,12.4139172 L14.4200627,5.58633103 C14.4200627,5.46746897 14.4887147,5.35915862 14.5962382,5.30733103 C14.7053292,5.25581379 14.8329154,5.26915862 14.9272727,5.3424 L19.3159875,8.7561931 C19.3915361,8.81484828 19.4357367,8.90484828 19.4357367,9.00012414 C19.4357367,9.0954 19.3915361,9.1854 19.3159875,9.24405517 L14.9272727,12.6575379 C14.8708464,12.7019172 14.8025078,12.7242621 14.7335423,12.7242621" id="Fill-9"></path>
            </g>
        </g>
    </g>
</svg>