<?xml version="1.0" encoding="UTF-8"?>
<svg width="18px" height="15px" viewBox="0 0 18 15" version="1.1" xmlns="http://www.w3.org/2000/svg" xmlns:xlink="http://www.w3.org/1999/xlink">
    <!-- Generator: Sketch 46.2 (44496) - http://www.bohemiancoding.com/sketch -->
    <title>icon_twitter_small_white</title>
    <desc>Created with Sketch.</desc>
    <defs></defs>
    <g id="Page-1" stroke="none" stroke-width="1" fill="none" fill-rule="evenodd">
        <g id="icon_twitter_small_white" fill="#FFFFFF">
            <path d="M8.74002711,3.99023486 L8.77904509,4.63902717 L8.12874545,4.55958321 C5.76165478,4.25504805 3.69370193,3.22227663 1.93789292,1.48775028 L1.0794974,0.627107428 L0.85839552,1.26265907 C0.390179782,2.6794096 0.689317614,4.17560409 1.66476707,5.18189419 C2.18500678,5.73800188 2.06795284,5.81744583 1.17053935,5.48642935 C0.85839552,5.38050408 0.585269673,5.30106012 0.559257687,5.3407821 C0.468215738,5.43346672 0.780359563,6.6383667 1.02747343,7.11503044 C1.36562924,7.7770634 2.05494685,8.4258557 2.80929443,8.80983481 L3.44658807,9.11436997 L2.69224049,9.12761063 C1.9639049,9.12761063 1.93789292,9.14085129 2.01592887,9.41890514 C2.27604873,10.279548 3.30352215,11.1931535 4.44804951,11.5903732 L5.25442106,11.8684271 L4.55209745,12.2921282 C3.51161804,12.9011985 2.28905472,13.2454556 1.0664914,13.271937 C0.481221731,13.2851776 -2.84217094e-14,13.3381403 -2.84217094e-14,13.3778622 C-2.84217094e-14,13.5102688 1.58673111,14.2517457 2.5101566,14.5430402 C5.28043305,15.4036831 8.57094921,15.0329446 11.0420878,13.5632315 C12.7978968,12.5172194 14.5537059,10.4384359 15.3730834,8.4258557 C15.8152872,7.3533623 16.2574909,5.39374474 16.2574909,4.45365794 C16.2574909,3.84458761 16.2965089,3.76514366 17.0248445,3.0369074 C17.4540422,2.61320631 17.857228,2.14978324 17.935264,2.01737664 C18.0653239,1.76580412 18.0523179,1.76580412 17.3890123,1.99089533 C16.2835029,2.3881151 16.127431,2.33515246 16.6736827,1.7393228 C17.0768684,1.31562171 17.5580902,0.547663472 17.5580902,0.322572266 C17.5580902,0.282850288 17.3630003,0.349053584 17.1418984,0.468219517 C16.9077905,0.600626109 16.3875508,0.799235997 15.9973711,0.91840193 L15.2950474,1.14349314 L14.6577538,0.706551383 C14.306592,0.468219517 13.8123643,0.203406333 13.5522444,0.123962378 C12.8889388,-0.0614068508 11.8744714,-0.0349255324 11.2761957,0.176925015 C9.6504466,0.772754679 8.62297318,2.30867115 8.74002711,3.99023486 Z"></path>
        </g>
    </g>
</svg>