<?xml version="1.0" encoding="UTF-8"?>
<svg width="24px" height="20px" viewBox="0 0 24 20" version="1.1" xmlns="http://www.w3.org/2000/svg" xmlns:xlink="http://www.w3.org/1999/xlink">
    <!-- Generator: Sketch 46.2 (44496) - http://www.bohemiancoding.com/sketch -->
    <title>icon_twitter_grey</title>
    <desc>Created with Sketch.</desc>
    <defs></defs>
    <g id="Page-1" stroke="none" stroke-width="1" fill="none" fill-rule="evenodd">
        <g id="icon_twitter_grey" fill="#908D8C">
            <path d="M11.6533695,5.32031315 L11.7053935,6.18536955 L10.8383273,6.07944428 C7.68220637,5.6733974 4.92493591,4.29636884 2.58385722,1.98366703 L1.43932986,0.836143237 L1.14452736,1.68354543 C0.520239709,3.57254614 0.919090153,5.56747212 2.21968943,6.90919226 C2.91334237,7.65066917 2.75727046,7.75659445 1.56071913,7.31523914 C1.14452736,7.17400544 0.780359563,7.06808017 0.745676916,7.1210428 C0.624287651,7.24462229 1.04047942,8.85115561 1.36996457,9.48670725 C1.82083898,10.3694179 2.73992913,11.2344743 3.7457259,11.7464464 L4.59545076,12.1524933 L3.58965399,12.1701475 C2.61853987,12.1701475 2.58385722,12.1878017 2.68790516,12.5585402 C3.03473164,13.706064 4.4046962,14.9242046 5.93073268,15.453831 L7.00589475,15.8245695 L6.06946327,16.3895042 C4.68215738,17.201598 3.05207296,17.6606075 1.42198854,17.695916 C0.641628974,17.7135702 -2.84217094e-14,17.784187 -2.84217094e-14,17.8371496 C-2.84217094e-14,18.0136918 2.11564148,19.0023277 3.34687546,19.3907203 C7.0405774,20.5382441 11.4279323,20.0439262 14.7227838,18.0843086 C17.0638625,16.6896259 19.4049411,13.9179145 20.4974445,11.2344743 C21.0870495,9.80448307 21.6766545,7.19165965 21.6766545,5.93821058 C21.6766545,5.12611682 21.7286785,5.02019154 22.6997926,4.04920987 C23.2720563,3.48427508 23.8096373,2.86637765 23.9136853,2.68983552 C24.0870985,2.35440549 24.0697572,2.35440549 23.1853497,2.6545271 C21.7113372,3.18415347 21.5032413,3.11353662 22.2315769,2.31909707 C22.7691579,1.75416227 23.4107869,0.730217963 23.4107869,0.430096355 C23.4107869,0.377133718 23.1506671,0.465404779 22.8558645,0.62429269 C22.5437207,0.800834812 21.8500678,1.065648 21.3298281,1.22453591 L20.3933966,1.52465752 L19.5436717,0.94206851 C19.075456,0.62429269 18.4164857,0.271208444 18.0696592,0.165283171 C17.1852517,-0.081875801 15.8326285,-0.0465673765 15.0349276,0.23590002 C12.8672621,1.03033957 11.4972976,3.07822819 11.6533695,5.32031315 Z" id="icon_twitter"></path>
        </g>
    </g>
</svg>