<?xml version="1.0" encoding="UTF-8"?>
<svg width="18px" height="16px" viewBox="0 0 18 16" version="1.1" xmlns="http://www.w3.org/2000/svg" xmlns:xlink="http://www.w3.org/1999/xlink">
    <!-- Generator: Sketch 46.2 (44496) - http://www.bohemiancoding.com/sketch -->
    <title>icon_comments</title>
    <desc>Created with Sketch.</desc>
    <defs></defs>
    <g id="Page-1" stroke="none" stroke-width="1" fill="none" fill-rule="evenodd">
        <g id="icon_comments" fill-rule="nonzero" fill="#D26400">
            <g id="Shape">
                <path d="M15.8422069,7.35365517 C15.0924138,10.3914483 11.737931,12.6896552 7.72413793,12.6896552 C7.08606897,12.6896552 6.44110345,12.6278621 5.80386207,12.505931 L5.76606897,12.5249655 C6.83062069,13.9688276 8.83751724,14.8965517 11.0344828,14.8965517 C11.656,14.8965517 12.2766897,14.8209655 12.8813793,14.6714483 L15.0303448,15.9608276 C15.0742069,15.9867586 15.1233103,16 15.1724138,16 C15.2193103,16 15.2662069,15.9881379 15.3084138,15.9641379 C15.3947586,15.9150345 15.4482759,15.8234483 15.4482759,15.7241379 L15.4482759,13.425931 C16.5169655,12.5522759 17.1034483,11.4137931 17.1034483,10.2068966 C17.1034483,9.15641379 16.6568276,8.168 15.8422069,7.35365517 Z"></path>
                <path d="M1.93103448,13.7931034 C1.88055172,13.7931034 1.83034483,13.7793103 1.78593103,13.752 C1.70482759,13.7015172 1.65517241,13.6129655 1.65517241,13.5172414 L1.65517241,9.82206897 C0.586758621,8.75641379 0,7.42786207 0,6.06896552 C0,2.72248276 3.46510345,0 7.72413793,0 C11.9831724,0 15.4482759,2.72248276 15.4482759,6.06896552 C15.4482759,9.41544828 11.9831724,12.137931 7.72413793,12.137931 C7.06041379,12.137931 6.38896552,12.0673103 5.72662069,11.9277241 L2.05434483,13.7641379 C2.01544828,13.7834483 1.97324138,13.7931034 1.93103448,13.7931034 Z"></path>
            </g>
        </g>
    </g>
</svg>