<?xml version="1.0" encoding="UTF-8"?>
<svg width="10px" height="10px" viewBox="0 0 10 10" version="1.1" xmlns="http://www.w3.org/2000/svg" xmlns:xlink="http://www.w3.org/1999/xlink">
    <!-- Generator: Sketch 46.2 (44496) - http://www.bohemiancoding.com/sketch -->
    <title>icon_rss_small_white</title>
    <desc>Created with Sketch.</desc>
    <defs></defs>
    <g id="Page-1" stroke="none" stroke-width="1" fill="none" fill-rule="evenodd">
        <g id="icon_rss_small_white" fill="#FFFFFF">
            <g>
                <path d="M0.003,0 L0.003,1.88692308 C4.38684615,1.88692308 7.95376923,5.46 7.95376923,9.84692308 L9.84684615,9.84692308 C9.84684615,4.41692308 5.42992308,0 0.003,0" id="Fill-1"></path>
                <path d="M0,3.34469231 L0,5.23161538 C1.22923077,5.23161538 2.38615385,5.71238462 3.25384615,6.58315385 C4.12538462,7.45161538 4.60307692,8.61161538 4.60307692,9.847 L6.49923077,9.847 C6.49923077,6.26161538 3.58461538,3.34469231 0,3.34469231" id="Fill-3"></path>
                <path d="M1.31007692,7.22053846 C0.589307692,7.22053846 7.69230769e-05,7.80976923 7.69230769e-05,8.52746154 C7.69230769e-05,9.25207692 0.589307692,9.83438462 1.31007692,9.83438462 C2.037,9.83438462 2.62315385,9.25207692 2.62315385,8.52746154 C2.62315385,7.80976923 2.037,7.22053846 1.31007692,7.22053846" id="Fill-6"></path>
            </g>
        </g>
    </g>
</svg>