<?xml version="1.0" encoding="UTF-8"?>
<svg width="22px" height="30px" viewBox="0 0 22 30" version="1.1" xmlns="http://www.w3.org/2000/svg" xmlns:xlink="http://www.w3.org/1999/xlink">
    <!-- Generator: Sketch 46.2 (44496) - http://www.bohemiancoding.com/sketch -->
    <title>icon_info_white</title>
    <desc>Created with Sketch.</desc>
    <defs></defs>
    <g id="Page-1" stroke="none" stroke-width="1" fill="none" fill-rule="evenodd">
        <g id="icon_info_white" fill="#FFFFFF">
            <g>
                <path d="M9.07568238,30.0001935 L12.8970223,30.0001935 C14.7436849,30.0001935 16.2406948,28.4832581 16.2406948,26.6130968 L5.73200993,26.6130968 C5.73200993,28.4832581 7.22901985,30.0001935 9.07568238,30.0001935" id="Fill-1"></path>
                <path d="M14.8076923,12.5805968 C14.0176303,12.5805968 13.3746898,13.2318871 13.3746898,14.0322097 L13.3746898,15.4838226 L14.8076923,15.4838226 C15.5977543,15.4838226 16.2406948,14.8325323 16.2406948,14.0322097 C16.2406948,13.2318871 15.5977543,12.5805968 14.8076923,12.5805968" id="Fill-4"></path>
                <path d="M8.59801489,14.0322097 C8.59801489,13.2318871 7.95507444,12.5805968 7.16501241,12.5805968 C6.37495037,12.5805968 5.73200993,13.2318871 5.73200993,14.0322097 C5.73200993,14.8325323 6.37495037,15.4838226 7.16501241,15.4838226 L8.59801489,15.4838226 L8.59801489,14.0322097 Z" id="Fill-6"></path>
                <path d="M14.8076923,16.4518065 L13.3746898,16.4518065 L13.3746898,22.742129 C13.3746898,23.0097097 13.1606948,23.226 12.8970223,23.226 C12.6333499,23.226 12.4193548,23.0097097 12.4193548,22.742129 L12.4193548,16.4518065 L9.55334988,16.4518065 L9.55334988,22.742129 C9.55334988,23.0097097 9.33935484,23.226 9.07568238,23.226 C8.81200993,23.226 8.59801489,23.0097097 8.59801489,22.742129 L8.59801489,16.4518065 L7.16501241,16.4518065 C5.84808313,16.4518065 4.77667494,15.3664839 4.77667494,14.0324516 C4.77667494,12.6984194 5.84808313,11.6130968 7.16501241,11.6130968 C8.48194169,11.6130968 9.55334988,12.6984194 9.55334988,14.0324516 L9.55334988,15.4840645 L12.4193548,15.4840645 L12.4193548,14.0324516 C12.4193548,12.6984194 13.490763,11.6130968 14.8076923,11.6130968 C16.1246216,11.6130968 17.1960298,12.6984194 17.1960298,14.0324516 C17.1960298,15.3664839 16.1246216,16.4518065 14.8076923,16.4518065 M10.9863524,0.000193548387 C4.9285732,0.000193548387 0,4.99180645 0,11.1292258 C0,15.2222903 2.18867246,18.9374516 5.73200993,20.8947097 L5.73200993,25.6453548 L16.2406948,25.6453548 L16.2406948,20.8947097 C19.7840323,18.9374516 21.9727047,15.2222903 21.9727047,11.1292258 C21.9727047,4.99180645 17.0441315,0.000193548387 10.9863524,0.000193548387" id="Fill-8"></path>
            </g>
        </g>
    </g>
</svg>