<?xml version="1.0" encoding="UTF-8"?>
<svg width="20px" height="20px" viewBox="0 0 20 20" version="1.1" xmlns="http://www.w3.org/2000/svg" xmlns:xlink="http://www.w3.org/1999/xlink">
    <!-- Generator: Sketch 46.2 (44496) - http://www.bohemiancoding.com/sketch -->
    <title>icon_rss_grey</title>
    <desc>Created with Sketch.</desc>
    <defs></defs>
    <g id="Page-1" stroke="none" stroke-width="1" fill="none" fill-rule="evenodd">
        <g id="icon_rss_grey" fill="#908D8C">
            <g id="icon_rss">
                <path d="M0.006,0 L0.006,3.77384615 C8.77369231,3.77384615 15.9075385,10.92 15.9075385,19.6938462 L19.6936923,19.6938462 C19.6936923,8.83384615 10.8598462,0 0.006,0" id="Fill-1"></path>
                <path d="M0,6.68938462 L0,10.4632308 C2.45846154,10.4632308 4.77230769,11.4247692 6.50769231,13.1663077 C8.25076923,14.9032308 9.20615385,17.2232308 9.20615385,19.694 L12.9984615,19.694 C12.9984615,12.5232308 7.16923077,6.68938462 0,6.68938462" id="Fill-3"></path>
                <path d="M2.62015385,14.4410769 C1.17861538,14.4410769 0.000153846154,15.6195385 0.000153846154,17.0549231 C0.000153846154,18.5041538 1.17861538,19.6687692 2.62015385,19.6687692 C4.074,19.6687692 5.24630769,18.5041538 5.24630769,17.0549231 C5.24630769,15.6195385 4.074,14.4410769 2.62015385,14.4410769" id="Fill-6"></path>
            </g>
        </g>
    </g>
</svg>