<?xml version="1.0" encoding="UTF-8"?>
<svg width="12px" height="10px" viewBox="0 0 12 10" version="1.1" xmlns="http://www.w3.org/2000/svg" xmlns:xlink="http://www.w3.org/1999/xlink">
    <!-- Generator: Sketch 46.2 (44496) - http://www.bohemiancoding.com/sketch -->
    <title>icon_twitter_really_small_white</title>
    <desc>Created with Sketch.</desc>
    <defs></defs>
    <g id="Page-1" stroke="none" stroke-width="1" fill="none" fill-rule="evenodd">
        <g id="icon_twitter_really_small_white" fill="#FFFFFF">
            <path d="M5.82668474,2.66015658 L5.85269673,3.09268478 L5.41916364,3.03972214 C3.84110318,2.8366987 2.46246796,2.14818442 1.29192861,0.991833517 L0.719664931,0.418071618 L0.57226368,0.841772713 C0.260119854,1.78627307 0.459545076,2.78373606 1.10984471,3.45459613 C1.45667119,3.82533459 1.37863523,3.87829722 0.780359563,3.65761957 C0.57226368,3.58700272 0.390179782,3.53404008 0.372838458,3.5605214 C0.312143825,3.62231114 0.520239709,4.4255778 0.684982284,4.74335362 C0.910419491,5.18470893 1.36996457,5.61723713 1.87286295,5.87322321 L2.29772538,6.07624665 L1.794827,6.08507376 C1.30926993,6.08507376 1.29192861,6.09390086 1.34395258,6.27927009 C1.51736582,6.85303199 2.2023481,7.46210231 2.96536634,7.7269155 L3.50294737,7.91228473 L3.03473164,8.19475212 C2.34107869,8.600799 1.52603648,8.83030376 0.710994269,8.84795798 C0.320814487,8.85678508 -2.84217094e-14,8.89209351 -2.84217094e-14,8.91857482 C-2.84217094e-14,9.00684589 1.05782074,9.50116383 1.67343773,9.69536016 C3.5202887,10.2691221 5.71396614,10.0219631 7.36139188,9.04215431 C8.53193123,8.34481293 9.70247057,6.95895726 10.2487223,5.61723713 C10.5435248,4.90224153 10.8383273,3.59582983 10.8383273,2.96910529 C10.8383273,2.56305841 10.8643393,2.51009577 11.3498963,2.02460493 C11.6360282,1.74213754 11.9048187,1.43318882 11.9568426,1.34491776 C12.0435493,1.17720275 12.0348786,1.17720275 11.5926748,1.32726355 C10.8556686,1.59207673 10.7516207,1.55676831 11.1157884,1.15954853 C11.384579,0.877081137 11.7053935,0.365108982 11.7053935,0.215048177 C11.7053935,0.188566859 11.5753335,0.23270239 11.4279323,0.312146345 C11.2718604,0.400417406 10.9250339,0.532823998 10.664914,0.612267953 L10.1966983,0.762328758 L9.77183587,0.471034255 C9.537728,0.312146345 9.20824285,0.135604222 9.03482961,0.0826415854 C8.59262586,-0.0409379005 7.91631424,-0.0232836882 7.51746379,0.11795001 C6.43363107,0.515169786 5.74864878,1.5391141 5.82668474,2.66015658 Z"></path>
        </g>
    </g>
</svg>