<?xml version="1.0" encoding="UTF-8"?>
<svg width="20px" height="20px" viewBox="0 0 20 20" version="1.1" xmlns="http://www.w3.org/2000/svg" xmlns:xlink="http://www.w3.org/1999/xlink">
    <!-- Generator: Sketch 46.2 (44496) - http://www.bohemiancoding.com/sketch -->
    <title>icon_search_white</title>
    <desc>Created with Sketch.</desc>
    <defs></defs>
    <g id="Page-1" stroke="none" stroke-width="1" fill="none" fill-rule="evenodd">
        <g id="icon_search_white" fill="#FFFFFF">
            <path d="M7.43281875,12.5791881 C4.58547742,12.5791881 2.28702115,10.2807318 2.28702115,7.43339051 C2.28702115,4.58604917 4.58547742,2.28759291 7.43281875,2.28759291 C10.2801601,2.28759291 12.5786164,4.58604917 12.5786164,7.43339051 C12.5786164,10.2807318 10.2801601,12.5791881 7.43281875,12.5791881 L7.43281875,12.5791881 Z M14.2938822,12.5791881 L13.3905089,12.5791881 L13.0703259,12.2704403 C14.1909663,10.9668382 14.8656375,9.27444254 14.8656375,7.43339051 C14.8656375,3.32818754 11.5380217,0.000571755289 7.43281875,0.000571755289 C3.32761578,0.000571755289 0,3.32818754 0,7.43339051 C0,11.5385935 3.32761578,14.8662093 7.43281875,14.8662093 C9.27387078,14.8662093 10.9662664,14.1909663 12.2698685,13.0703259 L12.5786164,13.3910806 L12.5786164,14.294454 L18.2961692,20 L20,18.296741 L14.2938822,12.5791881 Z"></path>
        </g>
    </g>
</svg>