<?xml version="1.0" encoding="UTF-8"?>
<svg width="31px" height="20px" viewBox="0 0 31 20" version="1.1" xmlns="http://www.w3.org/2000/svg" xmlns:xlink="http://www.w3.org/1999/xlink">
    <!-- Generator: Sketch 46.2 (44496) - http://www.bohemiancoding.com/sketch -->
    <title>icon_google_grey</title>
    <desc>Created with Sketch.</desc>
    <defs></defs>
    <g id="Page-1" stroke="none" stroke-width="1" fill="none" fill-rule="evenodd">
        <g id="icon_google_grey" fill="#908D8C">
            <path d="M9.84628157,8.0197827 L19.3023071,8.0197827 C19.9606721,12.8120254 17.974054,20 9.84628157,20 C4.40881719,20 0,15.5224113 0,9.99961058 C0,4.47680984 4.40881719,0 9.84628157,0 C12.3975417,0 14.7221768,0.985240858 16.4714148,2.6029051 C14.4110475,4.57883874 14.4786509,4.69644457 13.6689465,5.5189065 C12.6572002,4.66918494 11.5540356,4.05934811 9.84628157,4.05934811 C6.61591455,4.05934811 4.09461502,6.719109 4.09461502,9.99961058 C4.09461502,13.280891 6.61591455,15.9406519 9.84628157,15.9406519 C13.0382376,15.9406519 14.3349937,14.5426224 15.1692811,11.9747654 C13.6289991,11.9747654 9.84628157,11.9802173 9.84628157,11.9802173 L9.84628157,8.0197827 Z M27.588333,8.21760972 L31,8.21760972 L31,10.692784 L27.588333,10.692784 L27.588333,14.2575645 L25.1515377,14.2575645 L25.1515377,10.692784 L21.6415384,10.692784 L21.6415384,8.21760972 L25.1515377,8.21760972 L25.1515377,4.75252152 L27.588333,4.75252152 L27.588333,8.21760972 Z"></path>
        </g>
    </g>
</svg>