<?xml version="1.0" encoding="UTF-8"?>
<svg width="28px" height="20px" viewBox="0 0 28 20" version="1.1" xmlns="http://www.w3.org/2000/svg" xmlns:xlink="http://www.w3.org/1999/xlink">
    <!-- Generator: Sketch 46.2 (44496) - http://www.bohemiancoding.com/sketch -->
    <title>icon_arrow_left_big_white</title>
    <desc>Created with Sketch.</desc>
    <defs></defs>
    <g id="Page-1" stroke="none" stroke-width="1" fill="none" fill-rule="evenodd">
        <g id="icon_arrow_left_big_white" fill-rule="nonzero" fill="#FFFFFF">
            <path d="M18.3837323,0.133294697 C18.2071524,-0.0444315657 17.9217342,-0.0444315657 17.7451543,0.133294697 L15.0354878,2.86055193 C14.8589078,3.03827819 14.8589078,3.32554929 15.0354878,3.50327555 L19.2323095,7.72734246 L0.451611082,7.72734246 C0.202321765,7.72734246 0,7.93097766 0,8.18188533 L0,11.8182283 C0,12.069136 0.202321765,12.2727712 0.451611082,12.2727712 L19.2323095,12.2727712 L15.0354878,16.4968381 C14.8589078,16.6745643 14.8589078,16.9618354 15.0354878,17.1395617 L17.7451543,19.8668189 C17.8332184,19.9554548 17.9488309,20 18.0644433,20 C18.1800557,20 18.2956682,19.9554548 18.3837323,19.8668189 L27.8675651,10.3214186 C28.044145,10.1436924 28.044145,9.85642127 27.8675651,9.67869501 L18.3837323,0.133294697 Z" transform="translate(14.000000, 10.000000) scale(-1, 1) translate(-14.000000, -10.000000) "></path>
        </g>
    </g>
</svg>