<?xml version="1.0" encoding="UTF-8"?>
<svg width="16px" height="14px" viewBox="0 0 16 14" version="1.1" xmlns="http://www.w3.org/2000/svg" xmlns:xlink="http://www.w3.org/1999/xlink">
    <!-- Generator: Sketch 46.2 (44496) - http://www.bohemiancoding.com/sketch -->
    <title>icon_reply_grey</title>
    <desc>Created with Sketch.</desc>
    <defs></defs>
    <g id="Page-1" stroke="none" stroke-width="1" fill="none" fill-rule="evenodd">
        <g id="icon_reply_grey" fill="#908D8C">
            <g id="Fill-1">
                <path d="M15.7333358,13.4543008 C15.6424033,13.4543008 15.5554707,13.4089309 15.5061378,13.3308945 C13.7688204,10.5858825 11.1960438,9.38241204 6.93341603,9.33496803 L6.93341603,13.1950439 C6.93341603,13.3015985 6.86621664,13.3975236 6.76408424,13.4364121 C6.6622185,13.4755599 6.54568623,13.4496342 6.47102025,13.3713386 L0.0710786211,6.65788134 C-0.0262538245,6.55547487 -0.0233205179,6.39680965 0.0780118911,6.29829203 L6.47795352,0.0761265571 C6.55421949,0.00197908525 6.66861844,-0.0205762646 6.76861753,0.019867811 C6.86834996,0.0597933727 6.93341603,0.154681396 6.93341603,0.259421182 L6.93341603,4.15034866 C12.8666952,4.2403108 16,7.36306009 16,13.1950439 C16,13.3109318 15.9208007,13.413079 15.8058684,13.4444491 C15.7818687,13.4509305 15.7573355,13.4543008 15.7333358,13.4543008"></path>
            </g>
        </g>
    </g>
</svg>