<?xml version="1.0" encoding="UTF-8"?>
<svg width="55px" height="55px" viewBox="0 0 55 55" version="1.1" xmlns="http://www.w3.org/2000/svg" xmlns:xlink="http://www.w3.org/1999/xlink">
    <!-- Generator: Sketch 46.2 (44496) - http://www.bohemiancoding.com/sketch -->
    <title>icon_user</title>
    <desc>Created with Sketch.</desc>
    <defs></defs>
    <g id="Page-1" stroke="none" stroke-width="1" fill="none" fill-rule="evenodd">
        <g id="icon_user">
            <g>
                <rect id="grey_bg" fill="#F7F7F7" x="0" y="0" width="55" height="55"></rect>
                <path d="M33,38 L37.2843424,38" id="Stroke-1" stroke="#908D8C" stroke-linecap="square"></path>
                <path d="M24.2463989,28 L24.2463989,31.9539125 L16.1072193,34.2792394 C14.2681654,34.8040713 13,36.4862113 13,38.3980991 L13,43.2003114 L42.990397,43.2003114 L42.990397,38.3980991 C42.990397,36.4856757 41.7222316,34.8040713 39.8831776,34.2792394 L31.7439981,31.9539125 L31.7439981,28" id="Stroke-2" stroke="#908D8C"></path>
                <path d="M27.4975992,29.2084553 L27.4975992,29.2084553 C23.3567823,29.2084553 20,24.7800519 20,20.6397705 L20,18.4975992 C20,14.3567823 23.3567823,11 27.4975992,11 C31.6384162,11 34.9951985,14.3567823 34.9951985,18.4975992 L34.9951985,20.6397705 C34.9951985,24.7800519 31.6384162,29.2084553 27.4975992,29.2084553 Z" id="Stroke-4" stroke="#908D8C" stroke-linecap="square"></path>
                <path d="M20,17.8417317 C21.1171423,18.3130094 22.3879854,18.5823874 23.7386243,18.5823874 C26.3708172,18.5823874 28.6998928,17.5648561 30.1651379,16 C31.3229815,17.2365683 33.0249365,18.1218206 34.9850232,18.4431463" id="Stroke-6" stroke="#908D8C"></path>
            </g>
        </g>
    </g>
</svg>