<?xml version="1.0" encoding="UTF-8"?>
<svg width="20px" height="20px" viewBox="0 0 20 20" version="1.1" xmlns="http://www.w3.org/2000/svg" xmlns:xlink="http://www.w3.org/1999/xlink">
    <!-- Generator: Sketch 46.2 (44496) - http://www.bohemiancoding.com/sketch -->
    <title>icon_facebook_grey</title>
    <desc>Created with Sketch.</desc>
    <defs></defs>
    <g id="Page-1" stroke="none" stroke-width="1" fill="none" fill-rule="evenodd">
        <g id="icon_facebook_grey" fill="#908D8C">
            <path d="M19.9994552,18.8957289 C19.9994552,19.5053389 19.5053389,20 18.8957289,20 L13.7993027,20 L13.7993027,12.2548486 L16.3989976,12.2548486 L16.788516,9.23621704 L13.7993027,9.23621704 L13.7993027,7.30932665 C13.7993027,6.43549793 14.042275,5.8400523 15.2952713,5.8400523 L16.8936587,5.83950752 L16.8936587,3.13957289 C16.61691,3.10307256 15.6684463,3.02081063 14.56472,3.02081063 C12.2602964,3.02081063 10.6826106,4.42743517 10.6826106,7.01078666 L10.6826106,9.23621704 L8.0763783,9.23621704 L8.0763783,12.2548486 L10.6826106,12.2548486 L10.6826106,20 L1.1037263,20 C0.494116365,20 0,19.5053389 0,18.8957289 L0,1.10427108 C0,0.494116365 0.494116365,0 1.1037263,0 L18.8957289,0 C19.5053389,0 19.9994552,0.494116365 19.9994552,1.10427108 L19.9994552,18.8957289"></path>
        </g>
    </g>
</svg>