<?xml version="1.0" encoding="UTF-8"?>
<svg width="112px" height="31px" viewBox="0 0 112 31" version="1.1" xmlns="http://www.w3.org/2000/svg" xmlns:xlink="http://www.w3.org/1999/xlink">
    <!-- Generator: Sketch 46 (44423) - http://www.bohemiancoding.com/sketch -->
    <title>IP_Space_Logo_big_screen</title>
    <desc>Created with Sketch.</desc>
    <defs></defs>
    <g id="Symbols" stroke="none" stroke-width="1" fill="none" fill-rule="evenodd">
        <g id="Header_big_screen" transform="translate(-90.000000, -32.000000)">
            <g id="IP_Space_Logo_big_screen" transform="translate(90.000000, 32.000000)">
                <path d="M100.372845,15.5327596 C100.506278,15.2007722 100.672909,14.8525745 100.871462,14.4914085 C101.071292,14.1289457 101.294744,13.7651861 101.547563,13.3968876 C101.797191,13.0285891 102.084486,12.6991954 102.406257,12.408058 C102.727389,12.117569 103.079804,11.8828436 103.465418,11.7051785 C103.851032,11.5268649 104.265376,11.4380324 104.709725,11.4380324 L104.868695,11.4380324 C104.914663,11.4380324 104.965737,11.4445165 105.02575,11.4555395 C105.166206,11.4801792 105.291339,11.5456689 105.403064,11.6520086 C105.514152,11.7589967 105.569696,11.9016476 105.569696,12.0786643 C105.569696,12.2926405 105.468823,12.5448731 105.27027,12.8353621 C105.071717,13.1264995 104.709725,13.438386 104.184933,13.769725 C104.066823,13.8410504 103.866355,13.978514 103.579698,14.1795219 C103.293041,14.3811783 102.957225,14.606826 102.572249,14.8558166 C102.185997,15.1054555 101.774846,15.3661175 101.33688,15.6384509 C100.897638,15.9127295 100.474356,16.1558843 100.066397,16.3692122 C100.135986,16.1435645 100.238136,15.8640986 100.372845,15.5327596 M78.0538412,14.4473165 C77.8795488,14.7786554 77.6503511,15.1521412 77.3700787,15.5671255 C77.0891679,15.9834065 76.7744201,16.4074685 76.42392,16.8412567 C76.0734199,17.2737481 75.7139817,17.6712252 75.3462439,18.0343364 C74.9785061,18.394854 74.6216216,18.6918271 74.2775059,18.9233104 C73.9321132,19.1541454 73.6307725,19.2695629 73.3741222,19.2695629 C73.0472441,19.2695629 72.7867631,19.1982375 72.595233,19.0562351 C72.4017876,18.9135842 72.2523941,18.7365675 72.1483294,18.5225913 C72.0423494,18.3092635 71.9753139,18.0751864 71.9459459,17.8197118 C71.916578,17.5648855 71.901894,17.3178402 71.901894,17.0818179 C71.901894,16.4995432 72.0187274,15.9205105 72.2523941,15.3460167 C72.4866993,14.7695776 72.8014471,14.2508474 73.1991913,13.7878806 C73.5969355,13.3255622 74.0508619,12.9507796 74.5660779,12.6661263 C75.0806555,12.3808247 75.6124707,12.2388222 76.1608853,12.2388222 C76.3473079,12.2388222 76.5669291,12.2725397 76.8178336,12.3367326 C77.0693765,12.4022223 77.3062354,12.500781 77.5284103,12.631112 C77.7493084,12.761443 77.9370079,12.9183589 78.0895935,13.1025082 C78.2402639,13.2866574 78.3168759,13.4922043 78.3168759,13.7165552 C78.3168759,13.8708774 78.2294105,14.1140322 78.0538412,14.4473165 M111.965525,16.4664741 C111.941903,16.3666185 111.898489,16.2713018 111.834646,16.1811724 C111.770164,16.0923399 111.690998,16.0158272 111.597787,15.9503375 C111.503937,15.8861446 111.387742,15.8524271 111.247287,15.8524271 C111.177059,15.8524271 111.097893,15.8589113 111.010428,15.8712311 C110.922962,15.8816057 110.826559,15.9237525 110.721217,15.9944295 C110.616514,16.0430605 110.409023,16.1610716 110.099383,16.3510566 C109.789742,16.54169 109.404129,16.7666893 108.941903,17.0279996 C108.480315,17.2880132 107.963822,17.5648855 107.391785,17.8553745 C106.820387,18.1465118 106.23239,18.4149548 105.629708,18.6652421 C105.028304,18.9135842 104.421153,19.1191311 103.807619,19.2786407 C103.194084,19.4387987 102.618855,19.5192019 102.081932,19.5192019 C101.579485,19.5192019 101.175995,19.4212915 100.871462,19.224174 C100.569483,19.030947 100.386891,18.7605588 100.33007,18.4149548 C101.917855,17.8229538 103.240051,17.2316013 104.297936,16.6447876 C105.355182,16.057974 106.200468,15.481535 106.831241,14.9187126 C107.462013,14.3545934 107.905086,13.799552 108.163013,13.2542368 C108.419664,12.7089216 108.547989,12.1863008 108.547989,11.6876713 C108.547989,10.8460314 108.308576,10.1859471 107.829751,9.71195732 C107.350926,9.23796752 106.626303,9 105.656523,9 C104.733348,9 103.866355,9.13681511 103.053628,9.40979693 C102.241541,9.68277874 101.497127,10.0439447 100.819749,10.4952401 C100.141732,10.9465354 99.5320281,11.4652657 98.9880826,12.0520793 C98.4441371,12.6401898 97.9857416,13.2419169 97.6128964,13.8585576 C97.2381358,14.476495 96.9527559,15.090542 96.754203,15.7019953 C96.6373697,16.0573256 96.5594807,16.3938519 96.5109598,16.7154646 C96.1113003,16.9696425 95.6829113,17.2316013 95.2098319,17.5084736 C94.6620558,17.8287895 94.091296,18.1257626 93.5013833,18.398096 C92.9114705,18.6704294 92.3196425,18.8960771 91.722707,19.0750391 C91.1276867,19.2520558 90.5671419,19.3415367 90.0404341,19.3415367 C89.550117,19.3415367 89.1606725,19.2222288 88.8752926,18.9849097 C88.587359,18.748239 88.4449883,18.4227357 88.4449883,18.0064547 C88.4449883,17.7224498 88.5184082,17.3781426 88.6646095,16.9741814 C88.8108108,16.571517 89.0087253,16.1532907 89.261545,15.7195025 C89.5111726,15.2870111 89.795914,14.8590586 90.1106618,14.4375903 C90.4266865,14.0161219 90.7510109,13.6400424 91.0836348,13.3061098 C91.4162588,12.9754193 91.7495212,12.7050311 92.0827836,12.497539 C92.416046,12.2900469 92.7161098,12.1856524 92.9848904,12.1856524 C93.2185571,12.1856524 93.36412,12.2608683 93.4234944,12.408058 C93.4815918,12.557193 93.5109598,12.7368033 93.5109598,12.9507796 C93.5109598,13.141413 93.5071292,13.3404757 93.5013833,13.546671 C93.4962758,13.7554599 93.4943605,13.9117274 93.4943605,14.0200124 C93.4943605,14.1970291 93.5256438,14.3221728 93.5888487,14.3934982 C93.6539689,14.4648236 93.8020856,14.4998379 94.0357523,14.4998379 C94.4686103,14.4998379 94.8306023,14.3695069 95.1230049,14.1088449 C95.4154075,13.8475346 95.6548202,13.5200861 95.8412428,13.1290931 C96.0276655,12.7368033 96.1630134,12.318577 96.2447329,11.8744142 C96.3270909,11.429603 96.3679506,11.0223997 96.3679506,10.655398 C96.3679506,10.3584249 96.3175144,10.1023019 96.2185571,9.88897403 C96.1195999,9.6756462 95.984252,9.50770727 95.815067,9.383212 C95.6458821,9.25806832 95.4473292,9.16664211 95.2200468,9.1056913 C94.9908491,9.04733414 94.7488827,9.01815556 94.491594,9.01815556 C93.7318578,9.01815556 92.9823367,9.18350084 92.2404767,9.51613664 C91.4979783,9.84877244 90.7848478,10.2870995 90.1023622,10.8330632 C89.4192381,11.3790268 88.7839966,12.0028 88.2011066,12.7024374 C87.6163013,13.4014265 87.1087465,14.1140322 86.6758885,14.8383094 C86.3368802,15.4056707 86.0725686,15.9620089 85.8484784,16.5112146 C85.625665,16.7232456 85.4002979,16.9404639 85.1864226,17.1336909 C84.9061502,17.3839783 84.6175782,17.6290784 84.3187912,17.8722332 C84.0212811,18.115388 83.7320707,18.3332547 83.4511598,18.5225913 C83.170249,18.7119278 82.9110449,18.8643049 82.6716323,18.9771287 C82.4328581,19.0893041 82.2247287,19.1457161 82.0491594,19.1457161 C81.768887,19.1457161 81.5703341,19.030947 81.4541392,18.7981668 C81.3366674,18.5673318 81.2785699,18.2729523 81.2785699,17.9169737 C81.2785699,17.6446403 81.3187912,17.3152465 81.4011492,16.9294409 C81.4828687,16.5442837 81.5875718,16.1312447 81.715897,15.6922692 C81.845499,15.2526452 81.9885082,14.8058888 82.1455629,14.3487577 C82.3045329,13.892275 82.4590338,13.4532995 82.6103426,13.0311828 C82.7622898,12.6110112 82.8995531,12.2277992 83.0227708,11.8828436 C83.1459885,11.5385364 83.2353692,11.2538831 83.2941051,11.0282354 C83.3062354,10.9815497 83.3107044,10.9167084 83.3107044,10.8337116 C83.3107044,10.5367385 83.170249,10.2644051 82.890615,10.0141177 C82.6103426,9.76577559 82.2489891,9.64063191 81.8046393,9.64063191 C81.6641839,9.64063191 81.4981911,9.67305255 81.3047457,9.73919066 C81.1113003,9.80338354 80.9274314,9.87859943 80.753139,9.96029945 C80.5424558,10.0556161 80.3375186,10.1567685 80.1396042,10.2644051 C79.905299,10.038109 79.6371568,9.82996846 79.332624,9.64063191 C79.0638434,9.48630965 78.7369653,9.34430723 78.3513514,9.21332783 C77.9663758,9.08299685 77.5162801,9.01750715 77.0023409,9.01750715 C76.0089381,9.01750715 75.109385,9.19322703 74.3024048,9.54272157 C73.4967014,9.89351292 72.7791019,10.3499956 72.1483294,10.9128179 C71.5175569,11.4769371 70.9710577,12.1149754 70.5094701,12.8269327 C70.197276,13.3074066 69.9374335,13.7930679 69.6999362,14.2819712 C68.5284103,15.1754841 67.5075548,15.9432049 66.6526921,16.5734622 C65.583954,17.3632291 64.7016386,17.9921896 64.0076612,18.4609921 C63.3117685,18.9297946 62.7710151,19.2585399 62.3860396,19.4485249 C61.9991488,19.6378614 61.7073845,19.7331781 61.5088317,19.7331781 C61.2643116,19.7331781 61.0887423,19.6884376 60.9840392,19.5996051 C60.8780592,19.5101241 60.8269845,19.3947066 60.8269845,19.2520558 C60.8371994,19.1457161 60.9917004,18.9408176 61.2904873,18.6380088 C61.5886359,18.3358484 61.9557353,17.9681983 62.3937008,17.5344101 C62.8329432,17.1012703 63.302192,16.6207964 63.8052777,16.0923399 C64.307725,15.5645318 64.7744201,15.0224587 65.2072781,14.4648236 C65.6394978,13.9071885 65.9989359,13.3521471 66.2849542,12.8003478 C66.5709725,12.2479 66.7146201,11.7298181 66.7146201,11.2422117 C66.7146201,10.87521 66.6207704,10.551652 66.4343477,10.272186 C66.2466482,9.99401692 66.0046818,9.76318194 65.7071717,9.57903269 C65.4090232,9.39488343 65.0693765,9.25482625 64.6895084,9.16015798 C64.3102788,9.06613811 63.927857,9.01750715 63.5416046,9.01750715 C62.9810598,9.01750715 62.420515,9.11865955 61.8593318,9.31966754 C61.298787,9.52262077 60.749734,9.78328274 60.2128112,10.1029503 C59.6746116,10.4239146 59.1542881,10.782487 58.6531177,11.179964 C58.1506704,11.5780895 57.6826984,11.9781603 57.2498404,12.3808247 C57.2862311,12.3101477 57.3238987,12.1986206 57.3653969,12.04365 C57.4049798,11.8893277 57.4432858,11.7259277 57.4783997,11.5534499 C57.5135135,11.3816204 57.542243,11.2188688 57.5658651,11.065195 C57.5901256,10.9102243 57.6009789,10.7974005 57.6009789,10.726075 C57.6009789,10.3700964 57.4962758,10.1003566 57.2862311,9.91620737 C57.075548,9.73205812 56.7365397,9.64063191 56.2685678,9.64063191 C55.9659502,9.64063191 55.6824856,9.78068909 55.4194509,10.0588582 C55.1564163,10.3376757 54.9195574,10.6670695 54.7095127,11.0470394 C54.4988295,11.4263609 54.3124069,11.8115182 54.1489679,12.203808 C53.984252,12.5948009 53.8565652,12.8982581 53.7639923,13.1122344 C53.4237072,14.1438592 52.9978719,15.2234667 52.4832943,16.3510566 C51.9693552,17.479295 51.4120026,18.6263374 50.810598,19.7947773 C50.208555,20.9632173 49.5803362,22.1439771 48.9253033,23.3370568 C48.2721856,24.5301365 47.6292828,25.7186772 46.9985103,26.9059212 C46.9046606,27.1198974 46.8025112,27.3429515 46.6914237,27.5737864 C46.5803362,27.8052698 46.4724409,28.0425889 46.3677378,28.2857438 C46.2617578,28.5288986 46.1742924,28.7746471 46.1047031,29.0249344 C46.0344754,29.2726281 46,29.515783 46,29.7543989 C46,30.2407085 46.1372632,30.5688054 46.4111513,30.7412833 C46.6863162,30.9137611 47.0329857,31 47.4537136,31 C47.78123,31 48.0761864,30.9377524 48.3392211,30.8119603 C48.6016174,30.6887618 48.8352841,30.5221197 49.0408598,30.3139792 C49.2438817,30.1077839 49.4258353,29.8665743 49.58289,29.5942409 C49.74186,29.3206107 49.8791232,29.0294733 49.9953182,28.7208288 C50.0297936,28.6151375 50.1121515,28.4134811 50.2404767,28.116508 C50.3688019,27.8195349 50.5181954,27.4758761 50.6873803,27.0829379 C50.8565652,26.6925934 51.0378804,26.2776091 51.2306874,25.8386336 C51.4241328,25.3990097 51.6080017,24.9814318 51.7822941,24.5839547 C51.9585018,24.1864776 52.1130028,23.8382799 52.2464354,23.5432521 C52.3817834,23.246279 52.4781868,23.0439742 52.5362843,22.9369861 C52.5822515,22.8533408 52.6620558,22.7022606 52.7731432,22.4830971 C52.8842307,22.2639335 53.0100021,22.0136461 53.1498191,21.735477 C53.2902745,21.4566595 53.4447755,21.1596864 53.6145989,20.8452062 C53.7837838,20.5307259 53.9433922,20.2259719 54.0959779,19.9289988 C54.2479251,19.6320257 54.3883805,19.3648796 54.5160672,19.1275605 C54.6443924,18.8908898 54.7452649,18.707389 54.8154927,18.5757611 C55.0478825,18.1614253 55.332624,17.7075363 55.6646095,17.2147426 C55.9978719,16.7225972 56.3649713,16.2323971 56.7684614,15.7460874 C57.1719515,15.2597778 57.6048095,14.7909753 58.0657587,14.3396799 C58.5267078,13.8883846 58.9997872,13.4876654 59.4856352,13.1388193 C59.969568,12.7880279 60.4598851,12.508562 60.9578634,12.3017183 C61.4532879,12.0935778 61.9359438,11.9904801 62.4026389,11.9904801 C62.6714195,11.9904801 62.8648649,12.0319785 62.9810598,12.1149754 C63.0985316,12.1986206 63.1572675,12.3101477 63.1572675,12.4521501 C63.1572675,12.6901176 63.0168121,12.9987621 62.7365397,13.3780836 C62.4556289,13.7580536 62.1032134,14.1769283 61.6761013,14.6340594 C61.2496276,15.090542 60.7854863,15.574258 60.2830389,16.0845589 C59.7805916,16.5942114 59.3068738,17.0986766 58.8638008,17.5973061 C58.4194509,18.0952872 58.0395829,18.5757611 57.7235582,19.0387279 C57.4088104,19.5016947 57.2274952,19.9101948 57.1802511,20.2661735 C57.1693977,20.3271243 57.162375,20.3764037 57.162375,20.4179021 L57.162375,20.5508267 C57.162375,21.1331015 57.4049798,21.590881 57.8901894,21.9222199 C58.3760375,22.2542073 59.0623537,22.4208494 59.9497765,22.4208494 C60.8965737,22.4208494 61.784635,22.2665272 62.613322,21.9572342 C63.4426474,21.6498865 64.2930411,21.2135047 65.1638647,20.6493855 C66.0340498,20.0859147 66.9591402,19.4115653 67.9410513,18.628931 C68.1313045,18.4772024 68.3311343,18.3196381 68.530964,18.1620737 C68.5047883,18.4032833 68.4843584,18.6360635 68.4843584,18.8429072 C68.4843584,19.4952106 68.6075761,20.0476583 68.8533731,20.4983053 C69.0978932,20.950249 69.402426,21.3166023 69.7650564,21.6012556 C70.1257714,21.8865572 70.5094701,22.0914557 70.9116833,22.215951 C71.314535,22.3404462 71.6682273,22.4039907 71.9721217,22.4039907 C72.5684188,22.4039907 73.1557778,22.2639335 73.7335603,21.9844676 C74.3119813,21.7062984 74.8674186,21.3503198 75.3992339,20.9165316 C75.9297723,20.4840402 76.4264737,20.0035663 76.8886997,19.4751098 C77.3496489,18.9473017 77.7614386,18.4344071 78.1234305,17.9357777 C78.041711,18.1491055 77.9829751,18.3779952 77.9491381,18.62115 C77.9133858,18.8643049 77.8961481,19.1100533 77.8961481,19.3596923 C77.8961481,19.7383654 77.9421153,20.1092576 78.037242,20.4717204 C78.1291764,20.8335347 78.2734624,21.1570928 78.4649926,21.441746 C78.6577995,21.7263992 78.8997659,21.9572342 79.1921685,22.1361962 C79.4845712,22.3132129 79.8350713,22.4039907 80.2443073,22.4039907 C80.7007874,22.4039907 81.1840817,22.2937605 81.6986593,22.0733001 C82.2125984,21.8541366 82.7354756,21.572077 83.2672909,21.2277698 C83.7991062,20.8841109 84.3187912,20.5015473 84.8276229,20.080079 C85.0159608,19.9231631 85.1966376,19.7681924 85.3779528,19.6125733 C85.4175356,19.8109877 85.4654182,20.0061599 85.5369227,20.1948481 C85.6997233,20.634472 85.9404129,21.0170356 86.2551607,21.3438357 C86.5711854,21.6699873 86.9587146,21.9280556 87.4203022,22.118689 C87.8825282,22.3080256 88.4111513,22.4039907 89.0061715,22.4039907 C89.7895297,22.4039907 90.5843797,22.2814407 91.390083,22.0382858 C92.1964248,21.795131 92.9765908,21.4890801 93.7293041,21.1207816 C94.4826559,20.7544284 95.1906789,20.3472251 95.8508193,19.9024139 C96.1687593,19.6877892 96.4681847,19.4802971 96.7510109,19.2773439 C96.7522877,19.2812343 96.7529262,19.2844764 96.754203,19.2883669 C96.9527559,19.8933361 97.2413279,20.4276283 97.6199191,20.8899467 C97.9997872,21.3535618 98.4620132,21.7212119 99.0046818,21.9941938 C99.5486274,22.2665272 100.170462,22.4039907 100.871462,22.4039907 C101.689934,22.4039907 102.519259,22.2937605 103.360715,22.0733001 C104.201532,21.8541366 105.012343,21.5785611 105.787402,21.2459253 C106.565014,20.9139379 107.301128,20.5475847 107.996382,20.150756 C108.69036,19.7532789 109.301341,19.3771994 109.828049,19.0212208 C110.353479,18.6652421 110.783145,18.3559492 111.115131,18.0952872 C111.449032,17.8352737 111.643754,17.6738189 111.70249,17.6148133 C111.854437,17.4254767 111.941903,17.2555926 111.965525,17.107106 C111.989147,16.9592679 112,16.8315305 112,16.7251908 C112,16.6538654 111.989147,16.5682749 111.965525,16.4664741" id="Fill-9" fill="#FFFFFF"></path>
                <path d="M60.4535372,1.20723654 C60.1853307,0.968265615 59.8492875,0.754677612 59.4548293,0.572044391 C59.0829834,0.398697606 58.6677973,0.258162891 58.219949,0.15415482 C57.7739851,0.0513849399 57.342468,0 56.9373318,0 C56.199921,0 55.0623991,0.198729707 53.4613259,0.608571035 C51.925577,1.00293497 50.1681024,1.51987985 48.2360109,2.14826195 C46.312085,2.77416766 44.2851477,3.50346235 42.2117297,4.31447767 C40.1445928,5.12425479 38.221295,5.96870127 36.4971107,6.82491058 C34.7653889,7.68483445 33.309411,8.5336146 32.1737734,9.34648721 C30.8666595,10.2825598 30.2303758,11.1548656 30.2303758,12.0123131 C30.2303758,12.4723012 30.4326298,12.9149546 30.8314849,13.3266532 C31.1995621,13.7080161 31.8251678,14.0138494 32.8458598,14.2992525 C34.2333728,14.5852747 35.5222713,14.8595341 36.7207207,15.1220306 C37.7458096,15.3288086 38.7413768,15.5498257 39.7067944,15.7826057 C40.6634184,16.0135284 41.3556046,16.1930661 41.7846093,16.3212189 C42.2883601,16.4735165 42.75568,16.6270522 43.1790316,16.7781115 C43.4868095,16.891406 43.7807688,17.0387508 44.052744,17.2182885 C44.1494742,17.2814363 44.201608,17.3284876 44.2248484,17.3390122 C44.1871613,17.4529258 44.0006102,17.8144777 43.0954919,18.4998166 C42.1979111,19.1764881 41.0000897,19.8859718 39.5365744,20.6065991 C38.0636373,21.3327983 36.3664621,22.0268045 34.4921575,22.6675686 C32.6297872,23.3064753 30.7228204,23.783798 28.9301712,24.080964 C28.557069,24.080964 28.2046947,24.1527791 27.9107354,24.2840273 C27.6802161,24.3737962 27.4170346,24.5087591 27.1230753,24.6882968 C26.8171817,24.8715491 26.5426941,25.1148537 26.3040092,25.4114005 L26.0596712,25.5996056 L26.0596712,25.7741906 C26.0244966,25.8664358 26,25.9766349 26,26.1078832 C26,26.4397184 26.2273788,27 27.0828757,27 L27.0992068,27 L27.1155378,26.9987618 C28.2178852,26.9449005 29.5488676,26.7492663 31.071426,26.4168119 C32.5826783,26.0849766 34.154858,25.6652298 35.7458813,25.1674768 C37.3526076,24.6660094 38.9750368,24.0797258 40.5685726,23.4259607 C42.1746707,22.7653857 43.6300205,22.0831423 44.8944223,21.3978034 C46.1826927,20.6982253 47.2548903,19.978217 48.0814938,19.2588278 C49.0211586,18.4416216 49.5048096,17.6603228 49.5588278,16.8288774 C49.5588278,16.3837476 49.4074513,15.9813354 49.1178888,15.6625011 C48.9030724,15.4291021 48.6712968,15.2297533 48.4282151,15.0687884 C48.151215,14.8861552 47.8459495,14.7320004 47.5727181,14.6310878 C47.0966046,14.4051179 46.3610782,14.1488123 45.3849826,13.868981 C44.4214493,13.5910071 43.4359319,13.3334633 42.4409928,13.0982069 C41.2827429,12.8097083 40.0221098,12.5212098 38.6930117,12.238283 C37.7935465,12.0061222 37.0806324,11.8092497 36.5517569,11.6408557 C36.0410969,11.4792718 35.6529199,11.3436898 35.3909946,11.2334908 C35.3363483,11.2105842 35.2898676,11.189535 35.2502961,11.1709621 C35.2628585,11.1561038 35.2766771,11.1400073 35.29238,11.1232918 C35.4726499,10.9295148 35.701285,10.7406906 35.9732601,10.5623911 C36.3162126,10.3370403 36.695596,10.1123085 37.1088977,9.8900532 C40.0089193,8.37079244 42.803417,7.15426947 45.4145041,6.27081996 C48.0387818,5.38241768 50.3822907,4.69707879 52.3803345,4.23275704 C54.6823876,3.70466844 56.8594451,3.33135376 58.8556046,3.12333761 C59.0609992,3.17038888 59.2431535,3.19329542 59.4096048,3.19329542 L59.7374825,3.19329542 C60.9089229,3.19329542 61,2.48071632 61,2.26217555 C61,1.88762267 60.8159614,1.53349995 60.4535372,1.20723654" id="Fill-6" fill="#FF9F00"></path>
                <path d="M29.8050523,13.5521045 C29.6753023,13.3554848 29.4797091,13.2574993 29.2202091,13.2574993 C29.0911047,13.2574993 28.954254,13.2873492 28.8122391,13.3464 C28.6708697,13.4067487 28.5172354,13.4833201 28.3526273,13.577412 C26.7691613,14.7778958 25.4374489,15.772675 24.3568447,16.5623986 C23.2762405,17.3521222 22.3841288,17.9815651 21.6811551,18.4507271 C20.9775358,18.9198891 20.431424,19.2488865 20.0415286,19.4390172 C19.6516332,19.628499 19.3566295,19.7238887 19.1558721,19.7238887 C18.907346,19.7238887 18.730473,19.6791139 18.6239618,19.5908622 C18.5180961,19.5006637 18.4645178,19.3851577 18.4645178,19.2430463 C18.4767827,19.1359762 18.6329991,18.9309206 18.9338125,18.6278795 C19.2346258,18.3254874 19.6077377,17.9575554 20.0505659,17.5234345 C20.4933942,17.0899625 20.969144,16.6091201 21.4778156,16.0802584 C21.9845505,15.5520455 22.4577183,15.0095567 22.8947368,14.451494 C23.3311099,13.8934313 23.6945389,13.3379642 23.9850239,12.7857417 C24.2735723,12.2328702 24.4181693,11.7143911 24.4181693,11.2264106 C24.4181693,10.8591275 24.3232775,10.5353214 24.134785,10.2556411 C23.9462926,9.97725865 23.7009941,9.74624664 23.3995352,9.56195617 C23.0980763,9.37766569 22.7559496,9.23750111 22.3718638,9.14276023 C21.9884236,9.04866826 21.6004648,9 21.2112149,9 C20.6444464,9 20.0776778,9.10122998 19.5102638,9.30239212 C18.9434953,9.50550099 18.3883462,9.76636286 17.8441709,10.0862756 C17.3012867,10.4074861 16.7751861,10.7663334 16.2671601,11.1641153 C15.7591341,11.5625461 15.2872574,11.9629236 14.8502388,12.3658968 C14.8844515,12.2951656 14.9231829,12.1835531 14.9644963,12.0284636 C15.0064552,11.8740229 15.0451866,11.7104976 15.0793992,11.5378875 C15.116194,11.3659263 15.1452425,11.2030499 15.1678358,11.0492582 C15.1923656,10.8941687 15.203985,10.7812583 15.203985,10.7098782 C15.203985,10.3536265 15.0974739,10.0836799 14.8844515,9.89938943 C14.6720747,9.71509896 14.3293024,9.62360263 13.8574257,9.62360263 C13.5501571,9.62360263 13.2635452,9.76376722 12.9975901,10.0421497 C12.7329259,10.321181 12.4934372,10.6508274 12.2810604,11.0310887 C12.068038,11.4107011 11.8782545,11.7961537 11.7136463,12.1887444 C11.5477471,12.5800372 11.4186427,12.8837271 11.3231054,13.0978674 C11.1158928,13.722119 10.8654301,14.3703802 10.5936653,15.0296729 C10.4826355,15.0861281 10.3716056,15.1646462 10.2599303,15.2697696 C10.0830572,15.4832611 9.86164307,15.7266024 9.59568791,16.0010913 C9.33037828,16.2742825 9.0405388,16.559803 8.72746052,16.8563549 C8.41438224,17.1542046 8.08129277,17.4468631 7.72690106,17.7369259 C7.37186384,18.0282866 7.01166243,18.2872017 6.64565133,18.5130224 C6.27899471,18.7381943 5.91621121,18.9224847 5.55536429,19.065245 C5.19580841,19.2080052 4.84916297,19.2787364 4.51865559,19.2787364 C4.22429746,19.2787364 3.99578259,19.2274725 3.83698412,19.1268914 C3.67818565,19.0263104 3.59749537,18.8147657 3.59749537,18.494853 C3.59749537,18.198301 3.65365581,17.8712503 3.7666222,17.5149987 C3.87829754,17.1593959 4.01514825,16.7960063 4.17394672,16.4287231 C4.33403624,16.0601422 4.50122649,15.7019438 4.67809958,15.3502345 C4.8556182,14.999823 5.01506219,14.6773147 5.15707708,14.3801139 C5.27520764,14.1296345 5.37590911,13.916792 5.45789043,13.7383417 C5.54051728,13.5598915 5.62637173,13.3794944 5.71609932,13.195204 C5.80389035,13.0115624 5.9013642,12.812347 6.00722985,12.5988556 C6.11438654,12.3847152 6.24930068,12.1245023 6.4151999,11.8149721 C6.47394242,11.707253 6.51267375,11.6008318 6.53010285,11.4937616 C6.54753195,11.3873404 6.56237896,11.2796213 6.57399836,11.1738489 C6.57399836,10.7215586 6.41261781,10.3510309 6.08727461,10.0603191 C5.76257692,9.7689585 5.37590911,9.62360263 4.92662564,9.62360263 C4.65615183,9.62360263 4.38955115,9.69498274 4.13005121,9.83774297 C3.86861471,9.97985429 3.6388088,10.2180043 3.43805138,10.5495974 C3.22567457,10.9895584 3.02491716,11.4048609 2.83513362,11.7961537 C2.67052546,12.1296935 2.51430908,12.4567442 2.36583896,12.776008 C2.2186599,13.0978674 2.11473082,13.3353686 2.05534277,13.4885113 C1.8907346,13.9051116 1.68933167,14.3411792 1.45436158,14.798012 C1.21745492,15.2548447 0.992167664,15.7311447 0.779790851,16.2230186 C0.56805956,16.7168392 0.384085725,17.2249358 0.23174248,17.7466596 C0.0774626673,18.2696811 0,18.8030853 0,19.3507654 C0,20.3948618 0.275637991,21.1631714 0.824331884,21.656992 C1.37431682,22.1488659 2.12699574,22.3967496 3.0843052,22.3967496 C3.75693936,22.3967496 4.42376382,22.2656697 5.08671515,22.00351 C5.74772991,21.7432971 6.40616259,21.3948323 7.06330421,20.9620093 C7.42156905,20.7245082 7.77531523,20.4629974 8.12518828,20.1865617 C7.58165856,21.2254668 7.02005422,22.2721588 6.432629,23.3305312 C5.77096871,24.5245259 5.12092783,25.7139781 4.48315187,26.9021326 C4.38955115,27.1162729 4.28626759,27.339498 4.17394672,27.5711589 C4.06162586,27.8021709 3.95188708,28.039672 3.84537591,28.2830133 C3.73951026,28.5263546 3.65107372,28.7722915 3.5807118,29.0227708 C3.50970435,29.2713034 3.47290958,29.5146447 3.47290958,29.7527947 C3.47290958,30.2394773 3.61234238,30.5684748 3.89056247,30.7404359 C4.1674915,30.913046 4.51930111,31 4.94405474,31 C5.27456212,31 5.57279339,30.9370557 5.83939407,30.8118161 C6.10534923,30.6878742 6.34161036,30.5211043 6.54817748,30.3128042 C6.75474459,30.1064508 6.9380729,29.8657051 7.09751689,29.5925139 C7.25631536,29.3186739 7.39574816,29.0279621 7.51323321,28.718432 C7.54938245,28.6126596 7.6320093,28.4108486 7.76240479,28.1136478 C7.89215475,27.8164469 8.04191591,27.4725246 8.21427034,27.0799339 C8.38533373,26.6886411 8.56866205,26.2733386 8.76231872,25.8340265 C8.95791195,25.3940654 9.14382235,24.9761673 9.32134096,24.5783854 C9.49821406,24.1806035 9.65443043,23.8321387 9.79063562,23.5368846 C9.92619529,23.2396838 10.0236691,23.0372238 10.0837027,22.9301537 C10.1301803,22.8464443 10.2095795,22.6952482 10.3219004,22.4759166 C10.4342213,22.256585 10.5607436,22.0061057 10.7027585,21.7283721 C10.8447734,21.4486919 11.0009898,21.151491 11.1720532,20.8374185 C11.3431166,20.5220482 11.5064337,20.2170604 11.6607135,19.9198596 C11.8143478,19.6226588 11.9557172,19.3553078 12.0854671,19.1178067 C12.2152171,18.8809545 12.3159186,18.6973129 12.3862805,18.5662331 C12.6231872,18.1509306 12.9091535,17.6966935 13.2467616,17.2035218 C13.5837242,16.710999 13.9548995,16.220423 14.3628696,15.7337404 C14.7695486,15.2470578 15.2065671,14.7778958 15.6732797,14.3262543 C16.1406378,13.8746129 16.6189697,13.4735864 17.1089211,13.1244728 C17.599518,12.7734124 18.0952791,12.4937321 18.5968499,12.2867298 C19.0997117,12.0784296 19.5864354,11.9752529 20.0596032,11.9752529 C20.3313681,11.9752529 20.5256703,12.0167832 20.6444464,12.0998437 C20.7619314,12.1835531 20.8213194,12.2951656 20.8213194,12.4372769 C20.8213194,12.675427 20.6793046,12.9843082 20.3952748,13.3639206 C20.1118905,13.7441819 19.7549167,14.1633779 19.3243534,14.6208595 C18.892499,15.0776922 18.4232044,15.5617792 17.9151784,16.0724715 C17.4065069,16.5825148 16.9294659,17.0873669 16.4801825,17.5863788 C16.030899,18.0847418 15.6468133,18.5662331 15.3285708,19.028906 C15.0090373,19.4922278 14.825709,19.9010412 14.7792314,20.2572929 C14.7669665,20.3182904 14.7618023,20.3676076 14.7618023,20.4091378 L14.7618023,20.5421644 C14.7618023,21.1248857 15.0064552,21.5830163 15.4970521,21.9152582 C15.986358,22.2468513 16.6802944,22.4136212 17.5795068,22.4136212 C18.5355252,22.4136212 19.4328011,22.2591806 20.2726256,21.9496505 C21.1111589,21.6420671 21.9697035,21.2053506 22.8508413,20.6407987 C23.7306881,20.0775448 24.6673409,19.4026782 25.6595085,18.6194437 C26.6516762,17.8362092 27.778758,16.9705631 29.0439816,16.0186119 C29.362224,15.8051205 29.6017128,15.5377695 29.7605113,15.2172079 C29.9212463,14.8959974 30,14.5819249 30,14.2723948 C30,13.9875232 29.9360933,13.7467776 29.8050523,13.5521045" id="Fill-3" fill="#FFFFFF"></path>
                <path d="M5.46486323,7.62761506 C5.74172586,7.87587169 6.22230618,8 6.90841771,8 C7.27414236,8 7.58969321,7.91771269 7.85507027,7.75174338 C8.12105184,7.58577406 8.3362551,7.37935844 8.50128457,7.12900976 C8.66812755,6.88075314 8.79205078,6.61018131 8.87486776,6.31589958 C8.95828925,6.0223152 9,5.75523013 9,5.5125523 C9,5.07880056 8.87184525,4.71757322 8.61795376,4.43026499 C8.36345776,4.14295676 7.91552063,4 7.27414236,4 C6.88605108,4 6.55176062,4.08368201 6.27006196,4.24825662 C5.9877588,4.41422594 5.75260692,4.62552301 5.56460632,4.88005579 C5.37721022,5.13528591 5.23515188,5.41980474 5.14145383,5.73221757 C5.04775578,6.0460251 5,6.34728033 5,6.64225941 C5.0338522,7.04951185 5.18920961,7.37935844 5.46486323,7.62761506" id="Fill-1" fill="#FFFFFF"></path>
            </g>
        </g>
    </g>
</svg>