<?xml version="1.0" encoding="UTF-8"?>
<svg width="131px" height="32px" viewBox="0 0 131 32" version="1.1" xmlns="http://www.w3.org/2000/svg" xmlns:xlink="http://www.w3.org/1999/xlink">
    <!-- Generator: Sketch 47.1 (45422) - http://www.bohemiancoding.com/sketch -->
    <title>stars</title>
    <desc>Created with Sketch.</desc>
    <defs></defs>
    <g id="Page-1" stroke="none" stroke-width="1" fill="none" fill-rule="evenodd">
        <g id="stars" fill-rule="nonzero" fill="#372F2D">
            <g id="icon_star_border" transform="translate(66.000000, 0.000000)">
                <path d="M12.6315789,4.57263158 L8.09052632,4.18105263 L6.31578947,0 L4.54105263,4.18736842 L0,4.57263158 L3.44842105,7.56 L2.41263158,12 L6.31578947,9.64421053 L10.2189474,12 L9.18947368,7.56 L12.6315789,4.57263158 Z M6.31578947,8.46315789 L3.94105263,9.89684211 L4.57263158,7.19368421 L2.47578947,5.37473684 L5.24210526,5.13473684 L6.31578947,2.58947368 L7.39578947,5.14105263 L10.1621053,5.38105263 L8.06526316,7.2 L8.69684211,9.90315789 L6.31578947,8.46315789 Z" id="Shape"></path>
            </g>
            <g id="icon_star_border" transform="translate(66.000000, 20.000000)">
                <path d="M12.6315789,4.57263158 L8.09052632,4.18105263 L6.31578947,0 L4.54105263,4.18736842 L0,4.57263158 L3.44842105,7.56 L2.41263158,12 L6.31578947,9.64421053 L10.2189474,12 L9.18947368,7.56 L12.6315789,4.57263158 Z M6.31578947,8.46315789 L3.94105263,9.89684211 L4.57263158,7.19368421 L2.47578947,5.37473684 L5.24210526,5.13473684 L6.31578947,2.58947368 L7.39578947,5.14105263 L10.1621053,5.38105263 L8.06526316,7.2 L8.69684211,9.90315789 L6.31578947,8.46315789 Z" id="Shape"></path>
            </g>
            <g id="icon_star_border" transform="translate(79.000000, 0.000000)">
                <path d="M12.6315789,4.57263158 L8.09052632,4.18105263 L6.31578947,0 L4.54105263,4.18736842 L0,4.57263158 L3.44842105,7.56 L2.41263158,12 L6.31578947,9.64421053 L10.2189474,12 L9.18947368,7.56 L12.6315789,4.57263158 Z M6.31578947,8.46315789 L3.94105263,9.89684211 L4.57263158,7.19368421 L2.47578947,5.37473684 L5.24210526,5.13473684 L6.31578947,2.58947368 L7.39578947,5.14105263 L10.1621053,5.38105263 L8.06526316,7.2 L8.69684211,9.90315789 L6.31578947,8.46315789 Z" id="Shape"></path>
            </g>
            <g id="icon_star_border" transform="translate(79.000000, 20.000000)">
                <path d="M12.6315789,4.57263158 L8.09052632,4.18105263 L6.31578947,0 L4.54105263,4.18736842 L0,4.57263158 L3.44842105,7.56 L2.41263158,12 L6.31578947,9.64421053 L10.2189474,12 L9.18947368,7.56 L12.6315789,4.57263158 Z M6.31578947,8.46315789 L3.94105263,9.89684211 L4.57263158,7.19368421 L2.47578947,5.37473684 L5.24210526,5.13473684 L6.31578947,2.58947368 L7.39578947,5.14105263 L10.1621053,5.38105263 L8.06526316,7.2 L8.69684211,9.90315789 L6.31578947,8.46315789 Z" id="Shape"></path>
            </g>
            <g id="icon_star_border" transform="translate(92.000000, 0.000000)">
                <path d="M12.6315789,4.57263158 L8.09052632,4.18105263 L6.31578947,0 L4.54105263,4.18736842 L0,4.57263158 L3.44842105,7.56 L2.41263158,12 L6.31578947,9.64421053 L10.2189474,12 L9.18947368,7.56 L12.6315789,4.57263158 Z M6.31578947,8.46315789 L3.94105263,9.89684211 L4.57263158,7.19368421 L2.47578947,5.37473684 L5.24210526,5.13473684 L6.31578947,2.58947368 L7.39578947,5.14105263 L10.1621053,5.38105263 L8.06526316,7.2 L8.69684211,9.90315789 L6.31578947,8.46315789 Z" id="Shape"></path>
            </g>
            <g id="icon_star_border" transform="translate(92.000000, 20.000000)">
                <path d="M12.6315789,4.57263158 L8.09052632,4.18105263 L6.31578947,0 L4.54105263,4.18736842 L0,4.57263158 L3.44842105,7.56 L2.41263158,12 L6.31578947,9.64421053 L10.2189474,12 L9.18947368,7.56 L12.6315789,4.57263158 Z M6.31578947,8.46315789 L3.94105263,9.89684211 L4.57263158,7.19368421 L2.47578947,5.37473684 L5.24210526,5.13473684 L6.31578947,2.58947368 L7.39578947,5.14105263 L10.1621053,5.38105263 L8.06526316,7.2 L8.69684211,9.90315789 L6.31578947,8.46315789 Z" id="Shape"></path>
            </g>
            <g id="icon_star_border" transform="translate(105.000000, 0.000000)">
                <path d="M12.6315789,4.57263158 L8.09052632,4.18105263 L6.31578947,0 L4.54105263,4.18736842 L0,4.57263158 L3.44842105,7.56 L2.41263158,12 L6.31578947,9.64421053 L10.2189474,12 L9.18947368,7.56 L12.6315789,4.57263158 Z M6.31578947,8.46315789 L3.94105263,9.89684211 L4.57263158,7.19368421 L2.47578947,5.37473684 L5.24210526,5.13473684 L6.31578947,2.58947368 L7.39578947,5.14105263 L10.1621053,5.38105263 L8.06526316,7.2 L8.69684211,9.90315789 L6.31578947,8.46315789 Z" id="Shape"></path>
            </g>
            <g id="icon_star_border" transform="translate(105.000000, 20.000000)">
                <path d="M12.6315789,4.57263158 L8.09052632,4.18105263 L6.31578947,0 L4.54105263,4.18736842 L0,4.57263158 L3.44842105,7.56 L2.41263158,12 L6.31578947,9.64421053 L10.2189474,12 L9.18947368,7.56 L12.6315789,4.57263158 Z M6.31578947,8.46315789 L3.94105263,9.89684211 L4.57263158,7.19368421 L2.47578947,5.37473684 L5.24210526,5.13473684 L6.31578947,2.58947368 L7.39578947,5.14105263 L10.1621053,5.38105263 L8.06526316,7.2 L8.69684211,9.90315789 L6.31578947,8.46315789 Z" id="Shape"></path>
            </g>
            <g id="icon_star_border" transform="translate(118.000000, 0.000000)">
                <path d="M12.6315789,4.57263158 L8.09052632,4.18105263 L6.31578947,0 L4.54105263,4.18736842 L0,4.57263158 L3.44842105,7.56 L2.41263158,12 L6.31578947,9.64421053 L10.2189474,12 L9.18947368,7.56 L12.6315789,4.57263158 Z M6.31578947,8.46315789 L3.94105263,9.89684211 L4.57263158,7.19368421 L2.47578947,5.37473684 L5.24210526,5.13473684 L6.31578947,2.58947368 L7.39578947,5.14105263 L10.1621053,5.38105263 L8.06526316,7.2 L8.69684211,9.90315789 L6.31578947,8.46315789 Z" id="Shape"></path>
            </g>
            <g id="icon_star_border" transform="translate(118.000000, 20.000000)">
                <path d="M12.6315789,4.57263158 L8.09052632,4.18105263 L6.31578947,0 L4.54105263,4.18736842 L0,4.57263158 L3.44842105,7.56 L2.41263158,12 L6.31578947,9.64421053 L10.2189474,12 L9.18947368,7.56 L12.6315789,4.57263158 Z M6.31578947,8.46315789 L3.94105263,9.89684211 L4.57263158,7.19368421 L2.47578947,5.37473684 L5.24210526,5.13473684 L6.31578947,2.58947368 L7.39578947,5.14105263 L10.1621053,5.38105263 L8.06526316,7.2 L8.69684211,9.90315789 L6.31578947,8.46315789 Z" id="Shape"></path>
            </g>
            <g id="icon_star" transform="translate(1.000000, 0.000000)">
                <polygon id="Shape" points="6.31578947 9.64421053 10.2189474 12 9.18315789 7.56 12.6315789 4.57263158 8.09052632 4.18736842 6.31578947 0 4.54105263 4.18736842 0 4.57263158 3.44842105 7.56 2.41263158 12"></polygon>
            </g>
            <g id="icon_star" transform="translate(1.000000, 20.000000)">
                <polygon id="Shape" points="6.31578947 9.64421053 10.2189474 12 9.18315789 7.56 12.6315789 4.57263158 8.09052632 4.18736842 6.31578947 0 4.54105263 4.18736842 0 4.57263158 3.44842105 7.56 2.41263158 12"></polygon>
            </g>
            <g id="icon_star" transform="translate(14.000000, 0.000000)">
                <polygon id="Shape" points="6.31578947 9.64421053 10.2189474 12 9.18315789 7.56 12.6315789 4.57263158 8.09052632 4.18736842 6.31578947 0 4.54105263 4.18736842 0 4.57263158 3.44842105 7.56 2.41263158 12"></polygon>
            </g>
            <g id="icon_star" transform="translate(14.000000, 20.000000)">
                <polygon id="Shape" points="6.31578947 9.64421053 10.2189474 12 9.18315789 7.56 12.6315789 4.57263158 8.09052632 4.18736842 6.31578947 0 4.54105263 4.18736842 0 4.57263158 3.44842105 7.56 2.41263158 12"></polygon>
            </g>
            <g id="icon_star" transform="translate(27.000000, 0.000000)">
                <polygon id="Shape" points="6.31578947 9.64421053 10.2189474 12 9.18315789 7.56 12.6315789 4.57263158 8.09052632 4.18736842 6.31578947 0 4.54105263 4.18736842 0 4.57263158 3.44842105 7.56 2.41263158 12"></polygon>
            </g>
            <g id="icon_star" transform="translate(27.000000, 20.000000)">
                <polygon id="Shape" points="6.31578947 9.64421053 10.2189474 12 9.18315789 7.56 12.6315789 4.57263158 8.09052632 4.18736842 6.31578947 0 4.54105263 4.18736842 0 4.57263158 3.44842105 7.56 2.41263158 12"></polygon>
            </g>
            <g id="icon_star" transform="translate(40.000000, 0.000000)">
                <polygon id="Shape" points="6.31578947 9.64421053 10.2189474 12 9.18315789 7.56 12.6315789 4.57263158 8.09052632 4.18736842 6.31578947 0 4.54105263 4.18736842 0 4.57263158 3.44842105 7.56 2.41263158 12"></polygon>
            </g>
            <g id="icon_star" transform="translate(40.000000, 20.000000)">
                <polygon id="Shape" points="6.31578947 9.64421053 10.2189474 12 9.18315789 7.56 12.6315789 4.57263158 8.09052632 4.18736842 6.31578947 0 4.54105263 4.18736842 0 4.57263158 3.44842105 7.56 2.41263158 12"></polygon>
            </g>
            <g id="icon_star" transform="translate(53.000000, 0.000000)">
                <polygon id="Shape" points="6.31578947 9.64421053 10.2189474 12 9.18315789 7.56 12.6315789 4.57263158 8.09052632 4.18736842 6.31578947 0 4.54105263 4.18736842 0 4.57263158 3.44842105 7.56 2.41263158 12"></polygon>
            </g>
            <g id="icon_star_half" transform="translate(53.000000, 20.000000)">
                <path d="M12.6315789,4.57263158 L8.09052632,4.18105263 L6.31578947,0 L4.54105263,4.18736842 L0,4.57263158 L3.44842105,7.56 L2.41263158,12 L6.31578947,9.64421053 L10.2189474,12 L9.18947368,7.56 L12.6315789,4.57263158 Z M6.31578947,8.46315789 L6.31578947,2.58947368 L7.39578947,5.14105263 L10.1621053,5.38105263 L8.06526316,7.2 L8.69684211,9.90315789 L6.31578947,8.46315789 Z" id="Shape"></path>
            </g>
        </g>
    </g>
</svg>